<?xml version="1.0" encoding="UTF-8"?>
<svg xmlns="http://www.w3.org/2000/svg" xmlns:xlink="http://www.w3.org/1999/xlink" width="48pt" height="48pt" viewBox="0 0 48 48" version="1.1">
  <g id="surface1">
    <path style=" stroke:none;fill-rule:nonzero;fill:#FFFFFF;fill-opacity:1;" d="M 8 6 C 5.796875 6 4 7.796875 4 10 L 4 38 C 4 40.203125 5.796875 42 8 42 L 24 42 L 24 38 L 8 38 L 8 10 L 40 10 L 40 26.570313 L 44 28.8125 L 44 10 C 44 7.796875 42.203125 6 40 6 Z M 12 14 L 12 18 L 16 18 L 16 14 Z M 32 14 L 32 18 L 36 18 L 36 14 Z M 12 22 L 12 26 L 16 26 L 16 22 Z M 30.171875 26 C 29.03125 26.039063 28 26.984375 28 28.289063 L 28 45.710938 C 28 47.453125 29.828125 48.554688 31.320313 47.71875 L 46.84375 39 C 48.390625 38.132813 48.390625 35.867188 46.84375 35 L 31.320313 26.28125 C 30.945313 26.078125 30.554688 25.984375 30.171875 26 Z M 12 30 L 12 34 L 16 34 L 16 30 Z "/>
  </g>
</svg>
