<?xml version="1.0" encoding="UTF-8"?>
<svg xmlns="http://www.w3.org/2000/svg" xmlns:xlink="http://www.w3.org/1999/xlink" width="48pt" height="48pt" viewBox="0 0 48 48" version="1.1">
  <g id="surface1">
    <path style=" stroke:none;fill-rule:nonzero;fill:#FFFFFF;fill-opacity:1;" d="M 24 0 C 10.742188 0 0 10.742188 0 24 C 0 37.257813 10.742188 48 24 48 C 37.257813 48 48 37.257813 48 24 C 48 10.742188 37.257813 0 24 0 Z M 24 4 C 35.046875 4 44 12.953125 44 24 C 44 35.046875 35.046875 44 24 44 C 12.953125 44 4 35.046875 4 24 C 4 12.953125 12.953125 4 24 4 Z M 21.875 7.75 L 21 24.125 L 21.1875 25.875 L 33.5 36.75 L 35.4375 34.75 L 25.25 23.9375 L 24.375 7.75 Z "/>
  </g>
</svg>
