<?xml version="1.0" encoding="UTF-8"?>
<svg xmlns="http://www.w3.org/2000/svg" xmlns:xlink="http://www.w3.org/1999/xlink" width="48pt" height="48pt" viewBox="0 0 48 48" version="1.1">
  <g id="surface1">
    <path style=" stroke:none;fill-rule:nonzero;fill:#FFFFFF;fill-opacity:1;" d="M 24 0 C 10.796875 0 0 10.796875 0 24 C 0 37.203125 10.796875 48 24 48 C 37.203125 48 48 37.203125 48 24 C 48 10.796875 37.203125 0 24 0 Z M 24 4 C 35 4 44 13 44 24 C 44 35 35 44 24 44 C 13 44 4 35 4 24 C 4 13 13 4 24 4 Z M 36 12 L 20.1875 20.1875 L 12 36 L 27.8125 27.8125 Z M 24 21.8125 C 25.203125 21.8125 26.1875 22.796875 26.1875 24 C 26.1875 25.203125 25.203125 26.1875 24 26.1875 C 22.796875 26.1875 21.8125 25.203125 21.8125 24 C 21.8125 22.796875 22.796875 21.8125 24 21.8125 Z "/>
  </g>
</svg>
