<?xml version="1.0" encoding="UTF-8"?>
<svg xmlns="http://www.w3.org/2000/svg" xmlns:xlink="http://www.w3.org/1999/xlink" width="48pt" height="48pt" viewBox="0 0 48 48" version="1.1">
  <g id="surface1">
    <path style=" stroke:none;fill-rule:nonzero;fill:#FFFFFF;fill-opacity:1;" d="M 23.351563 4.359375 C 22.507813 4.4375 21.757813 5.054688 21.5625 5.945313 L 20.445313 10.835938 L 15.03125 16.859375 C 14.367188 17.59375 14 18.546875 14 19.53125 L 14 38 C 14 40.210938 15.789063 42 18 42 L 34.0625 42 C 35.546875 42 36.882813 41.125 37.492188 39.773438 L 43.492188 26.257813 C 43.828125 25.515625 44 24.703125 44 23.882813 L 44 22 C 44 19.796875 42.203125 18 40 18 L 26 18 C 26 18 28 13.257813 28 9.726563 C 28 6.5 25.921875 5.085938 24.21875 4.46875 C 23.929688 4.367188 23.640625 4.335938 23.351563 4.359375 Z M 7 18 C 5.34375 18 4 19.34375 4 21 L 4 39 C 4 40.65625 5.34375 42 7 42 C 8.65625 42 10 40.65625 10 39 L 10 21 C 10 19.34375 8.65625 18 7 18 Z "/>
  </g>
</svg>
