<?xml version="1.0" encoding="UTF-8"?>
<svg xmlns="http://www.w3.org/2000/svg" xmlns:xlink="http://www.w3.org/1999/xlink" width="48pt" height="48pt" viewBox="0 0 48 48" version="1.1">
  <g id="surface1">
    <path style=" stroke:none;fill-rule:nonzero;fill:#FFFFFF;fill-opacity:1;" d="M 22.414063 1.9375 L 20.648438 9.742188 L 13.414063 15.875 C 12.515625 16.632813 12 17.75 12 18.921875 L 12 38 C 12 40.1875 13.8125 42 16 42 L 33.273438 42 C 34.773438 42 36.164063 41.140625 36.84375 39.804688 L 43.671875 26.25 C 43.890625 25.828125 44 25.351563 44 24.882813 L 44 20 C 44 17.8125 42.1875 16 40 16 L 30.875 16 C 31.4375 14.242188 32 11.976563 32 9.726563 C 32 6.257813 29.828125 3.976563 27.890625 3.015625 C 25.953125 2.054688 24.085938 2 24.085938 2 Z M 25.5 6.429688 C 25.78125 6.515625 25.8125 6.453125 26.109375 6.59375 C 27.171875 7.125 28 7.710938 28 9.726563 C 28 12.5 26.15625 17.21875 26.15625 17.21875 L 24.984375 20 L 40 20 L 40 24.648438 L 33.273438 38 L 16 38 L 16 18.921875 L 24.25 11.921875 Z M 4 16 L 4 42 L 8 42 L 8 16 Z "/>
  </g>
</svg>
