<?xml version="1.0" encoding="UTF-8"?>
<svg xmlns="http://www.w3.org/2000/svg" xmlns:xlink="http://www.w3.org/1999/xlink" width="100pt" height="100pt" viewBox="0 0 100 100" version="1.1">
  <g id="surface1">
    <path style=" stroke:none;fill-rule:nonzero;fill:#FFFFFF;fill-opacity:1;" d="M 57.292969 21.824219 C 56.292969 21.949219 55.546875 22.800781 55.554688 23.808594 L 55.554688 37.824219 C 32.714844 38.519531 20.398438 50.609375 14.324219 62.625 C 8.160156 74.800781 7.945313 86.671875 7.9375 87.054688 C 7.9375 87.054688 7.9375 87.175781 7.9375 87.175781 L 7.9375 87.300781 C 7.90625 88.394531 8.765625 89.316406 9.859375 89.347656 C 10.953125 89.378906 11.875 88.519531 11.90625 87.425781 C 11.90625 87.425781 11.90625 87.300781 11.90625 87.300781 C 11.921875 87.117188 12.363281 81.109375 18.042969 74.714844 C 23.625 68.445313 34.511719 62.121094 55.554688 61.695313 L 55.554688 75.398438 C 55.554688 76.15625 55.988281 76.855469 56.679688 77.1875 C 57.371094 77.519531 58.183594 77.425781 58.78125 76.945313 L 90.527344 51.152344 C 91 50.773438 91.269531 50.207031 91.269531 49.601563 C 91.269531 49 91 48.433594 90.527344 48.054688 L 58.78125 22.257813 C 58.359375 21.917969 57.828125 21.761719 57.292969 21.824219 Z M 59.523438 27.964844 L 86.125 49.601563 L 59.523438 71.242188 L 59.523438 59.523438 C 59.523438 58.429688 58.632813 57.539063 57.539063 57.539063 C 34.21875 57.539063 21.648438 64.707031 15.066406 72.109375 C 14.820313 72.390625 14.679688 72.636719 14.445313 72.917969 C 15.285156 70.1875 16.382813 67.273438 17.855469 64.359375 C 23.648438 52.921875 34.699219 41.667969 57.539063 41.667969 C 58.632813 41.667969 59.523438 40.773438 59.523438 39.683594 Z "/>
  </g>
</svg>
