<?xml version="1.0" encoding="UTF-8"?>
<svg xmlns="http://www.w3.org/2000/svg" xmlns:xlink="http://www.w3.org/1999/xlink" width="100pt" height="100pt" viewBox="0 0 100 100" version="1.1">
  <g id="surface1">
    <path style=" stroke:none;fill-rule:nonzero;fill:#FFFFFF;fill-opacity:1;" d="M 51.585938 5.953125 C 43.9375 5.953125 37.699219 12.191406 37.699219 19.839844 C 37.699219 26.816406 42.890625 32.597656 49.601563 33.574219 L 49.601563 47.773438 C 43.542969 48.65625 38.738281 53.464844 37.851563 59.523438 L 29.761719 59.523438 L 29.761719 55.554688 C 29.761719 53.386719 27.964844 51.585938 25.792969 51.585938 L 19.839844 51.585938 C 17.671875 51.585938 15.871094 53.386719 15.871094 55.554688 L 15.871094 59.523438 L 11.90625 59.523438 C 7.550781 59.523438 3.96875 63.105469 3.96875 67.460938 L 3.96875 85.316406 C 3.96875 89.671875 7.550781 93.253906 11.90625 93.253906 L 87.300781 93.253906 C 91.65625 93.253906 95.238281 89.671875 95.238281 85.316406 L 95.238281 67.460938 C 95.238281 63.105469 91.65625 59.523438 87.300781 59.523438 L 65.320313 59.523438 C 64.4375 53.464844 59.632813 48.65625 53.570313 47.773438 L 53.570313 33.574219 C 60.285156 32.597656 65.476563 26.816406 65.476563 19.839844 C 65.476563 12.191406 59.238281 5.953125 51.585938 5.953125 Z M 51.585938 9.921875 C 57.089844 9.921875 61.507813 14.339844 61.507813 19.839844 C 61.507813 25.34375 57.089844 29.761719 51.585938 29.761719 C 46.085938 29.761719 41.667969 25.34375 41.667969 19.839844 C 41.667969 14.339844 46.085938 9.921875 51.585938 9.921875 Z M 51.585938 51.585938 C 56.386719 51.585938 60.167969 55.011719 61.105469 59.523438 L 42.070313 59.523438 C 43.007813 55.011719 46.789063 51.585938 51.585938 51.585938 Z M 19.839844 55.554688 L 25.792969 55.554688 L 25.792969 59.523438 L 19.839844 59.523438 Z M 11.90625 63.492188 L 87.300781 63.492188 C 89.496094 63.492188 91.269531 65.265625 91.269531 67.460938 L 91.269531 85.316406 C 91.269531 87.511719 89.496094 89.285156 87.300781 89.285156 L 11.90625 89.285156 C 9.710938 89.285156 7.9375 87.511719 7.9375 85.316406 L 7.9375 67.460938 C 7.9375 65.265625 9.710938 63.492188 11.90625 63.492188 Z "/>
  </g>
</svg>
