<?xml version="1.0" encoding="UTF-8"?>
<svg xmlns="http://www.w3.org/2000/svg" xmlns:xlink="http://www.w3.org/1999/xlink" width="64pt" height="64pt" viewBox="0 0 64 64" version="1.1">
<g id="surface1">
<path style=" stroke:none;fill-rule:nonzero;fill:#FFFFFF;fill-opacity:1;" d="M 28.75 8 L 20.75 24 L 8 24 L 8 56 L 45.6875 56 C 48.507813 56 50.96875 54.007813 51.5625 51.25 L 55.875 31.25 C 56.664063 27.554688 53.773438 24 50 24 L 34.4375 24 C 34.585938 22.75 34.617188 21.492188 35.5625 18.625 C 36.171875 16.773438 36 15.070313 36 14 C 36 12.507813 35.398438 11.132813 34.375 10 C 33.351563 8.867188 31.8125 8 30 8 Z M 31 12.5 C 31.125 12.59375 31.328125 12.5625 31.4375 12.6875 C 31.8125 13.101563 32 13.671875 32 14 C 32 15.296875 32.039063 16.507813 31.75 17.375 C 30.257813 21.898438 30 25.875 30 25.875 L 29.875 28 L 50 28 C 51.320313 28 52.210938 29.148438 51.9375 30.4375 L 47.6875 50.4375 C 47.484375 51.375 46.640625 52 45.6875 52 L 24 52 L 24 26.5 Z M 12 28 L 20 28 L 20 52 L 12 52 Z M 16 46 C 14.898438 46 14 46.898438 14 48 C 14 49.101563 14.898438 50 16 50 C 17.101563 50 18 49.101563 18 48 C 18 46.898438 17.101563 46 16 46 Z "/>
</g>
</svg>
