<?xml version="1.0" encoding="UTF-8"?>
<svg xmlns="http://www.w3.org/2000/svg" xmlns:xlink="http://www.w3.org/1999/xlink" width="24pt" height="24pt" viewBox="0 0 24 24" version="1.1">
  <g id="surface1">
    <path style=" stroke:none;fill-rule:nonzero;fill:#000000;fill-opacity:1;" d="M 12 2 C 10.34375 2 9 3.34375 9 5 L 9 11 C 9 12.65625 10.34375 14 12 14 C 13.65625 14 15 12.65625 15 11 L 15 5 C 15 3.34375 13.65625 2 12 2 Z M 5 11 C 5 14.523438 7.609375 17.433594 11 17.921875 L 11 21 L 13 21 L 13 17.921875 C 16.390625 17.433594 19 14.523438 19 11 L 17 11 C 17 13.761719 14.761719 16 12 16 C 9.238281 16 7 13.761719 7 11 Z "/>
  </g>
</svg>
