<?xml version="1.0" encoding="UTF-8"?>
<svg xmlns="http://www.w3.org/2000/svg" xmlns:xlink="http://www.w3.org/1999/xlink" width="200pt" height="200pt" viewBox="0 0 200 200" version="1.1">
  <g id="surface1">
    <path style=" stroke:none;fill-rule:nonzero;fill:#FFFFFF;fill-opacity:1;" d="M 137.507813 32.960938 C 137.125 32.953125 136.75 33.179688 136.585938 33.5625 C 136.367188 34.0625 136.59375 34.65625 137.101563 34.875 C 143.53125 37.640625 147.210938 44.226563 145.65625 50.210938 C 144.125 56.085938 137.882813 59.515625 133.054688 59.304688 C 129.507813 59.15625 128.148438 57.289063 126.273438 54.703125 C 124.296875 51.984375 121.84375 48.601563 115.9375 47.007813 C 111.539063 45.835938 104.328125 47.703125 100.351563 52.789063 C 97.820313 56.023438 95.804688 61.601563 100.09375 69.953125 L 98.15625 69.953125 C 96.445313 69.953125 95.070313 71.648438 94.75 73.953125 L 82.726563 73.953125 C 77.21875 69.507813 70.234375 66.84375 62.625 66.84375 C 44.9375 66.84375 30.546875 81.226563 30.546875 98.914063 C 30.546875 101.257813 30.828125 103.53125 31.3125 105.742188 C 30.15625 113.757813 29.023438 122.796875 28.882813 128.304688 C 28.851563 129.648438 28.726563 131.273438 28.59375 133.0625 C 27.9375 141.65625 26.945313 154.625 34.117188 160.976563 C 38.054688 164.46875 43.882813 165.476563 51.4375 163.96875 C 54.96875 163.273438 57.945313 161.03125 59.617188 157.8125 C 62.132813 152.96875 64.476563 148.703125 66.65625 144.898438 C 70.171875 147.6875 74.601563 149.367188 79.40625 149.367188 C 90.75 149.367188 99.976563 140.132813 99.976563 128.789063 C 99.976563 126.375 99.554688 124.039063 98.773438 121.851563 C 100.820313 121.835938 102.890625 121.835938 104.9375 121.851563 C 104.15625 124.039063 103.734375 126.382813 103.734375 128.789063 C 103.734375 140.132813 112.960938 149.367188 124.3125 149.367188 C 129.132813 149.367188 133.578125 147.664063 137.09375 144.851563 C 139.109375 148.359375 141.257813 152.25 143.554688 156.625 C 145.71875 160.765625 149.726563 163.640625 154.28125 164.3125 C 155.820313 164.539063 157.289063 164.65625 158.679688 164.65625 C 163.367188 164.65625 167.132813 163.351563 169.914063 160.757813 C 176.8125 154.328125 175.835938 141.53125 175.1875 133.0625 C 175.054688 131.273438 174.929688 129.648438 174.898438 128.304688 C 174.765625 122.757813 173.617188 113.601563 172.445313 105.539063 C 172.898438 103.398438 173.15625 101.1875 173.15625 98.914063 C 173.15625 81.226563 158.765625 66.84375 141.078125 66.84375 C 133.46875 66.84375 126.484375 69.507813 120.976563 73.953125 L 108.304688 73.953125 C 107.984375 71.648438 106.601563 69.953125 104.898438 69.953125 L 102.328125 69.953125 C 102.3125 69.921875 102.3125 69.898438 102.304688 69.875 C 97.921875 61.976563 99.679688 56.890625 101.929688 54.023438 C 105.289063 49.71875 111.617188 47.914063 115.414063 48.9375 C 120.640625 50.34375 122.679688 53.164063 124.65625 55.875 C 126.609375 58.570313 128.453125 61.117188 132.96875 61.304688 C 138.65625 61.5625 145.820313 57.554688 147.59375 50.710938 C 149.390625 43.78125 145.21875 36.1875 137.898438 33.03125 C 137.765625 32.984375 137.640625 32.960938 137.507813 32.960938 Z M 62.625 70.835938 C 78.109375 70.835938 90.710938 83.429688 90.710938 98.914063 C 90.710938 103.5 89.570313 108.054688 87.429688 112.085938 C 86.9375 113.007813 87.242188 114.164063 88.132813 114.71875 C 93.046875 117.773438 95.976563 123.03125 95.976563 128.78125 C 95.976563 137.921875 88.539063 145.359375 79.398438 145.359375 C 70.335938 145.359375 62.90625 137.984375 62.835938 128.921875 C 62.828125 127.867188 62 127 60.953125 126.9375 C 46.148438 126.070313 34.546875 113.757813 34.546875 98.914063 C 34.546875 83.429688 47.148438 70.835938 62.625 70.835938 Z M 141.078125 70.84375 C 156.5625 70.84375 169.15625 83.4375 169.15625 98.921875 C 169.15625 113.765625 157.5625 126.070313 142.757813 126.945313 C 141.710938 127.007813 140.882813 127.875 140.875 128.929688 C 140.796875 137.984375 133.367188 145.359375 124.304688 145.359375 C 115.164063 145.359375 107.726563 137.921875 107.726563 128.78125 C 107.726563 123.03125 110.664063 117.78125 115.570313 114.71875 C 116.460938 114.164063 116.773438 113.015625 116.28125 112.085938 C 114.132813 108.054688 113 103.5 113 98.921875 C 113 83.4375 125.59375 70.84375 141.078125 70.84375 Z M 98.15625 71.953125 L 104.898438 71.953125 C 105.375 71.953125 106.039063 72.710938 106.273438 73.953125 L 96.773438 73.953125 C 97.015625 72.710938 97.671875 71.953125 98.15625 71.953125 Z M 86.851563 77.953125 L 116.851563 77.953125 C 111.976563 83.578125 109 90.898438 109 98.914063 C 109 103.554688 110.015625 108.164063 111.953125 112.351563 C 109.914063 113.890625 108.21875 115.757813 106.898438 117.851563 C 105.25 117.835938 103.585938 117.820313 101.890625 117.820313 C 100.171875 117.820313 98.476563 117.835938 96.8125 117.851563 C 95.492188 115.757813 93.796875 113.890625 91.757813 112.351563 C 93.695313 108.164063 94.710938 103.554688 94.710938 98.914063 C 94.710938 90.898438 91.734375 83.585938 86.851563 77.953125 Z M 140.984375 79.953125 C 137.125 79.953125 133.984375 83.09375 133.984375 86.953125 C 133.984375 90.8125 137.125 93.953125 140.984375 93.953125 C 144.84375 93.953125 147.984375 90.8125 147.984375 86.953125 C 147.984375 83.09375 144.84375 79.953125 140.984375 79.953125 Z M 140.984375 81.953125 C 143.742188 81.953125 145.984375 84.195313 145.984375 86.953125 C 145.984375 89.710938 143.742188 91.953125 140.984375 91.953125 C 138.226563 91.953125 135.984375 89.710938 135.984375 86.953125 C 135.984375 84.195313 138.226563 81.953125 140.984375 81.953125 Z M 59.53125 83.453125 C 57.671875 83.453125 56.15625 84.960938 56.15625 86.820313 L 56.15625 93.625 L 49.351563 93.625 C 47.5 93.625 45.976563 95.132813 45.976563 97 L 45.976563 100.90625 C 45.976563 102.765625 47.492188 104.28125 49.351563 104.28125 L 56.15625 104.28125 L 56.15625 111.085938 C 56.15625 112.9375 57.664063 114.453125 59.53125 114.453125 L 63.4375 114.453125 C 65.296875 114.453125 66.8125 112.945313 66.8125 111.085938 L 66.8125 104.28125 L 73.617188 104.28125 C 75.476563 104.28125 76.984375 102.765625 76.984375 100.90625 L 76.984375 97 C 76.984375 95.140625 75.476563 93.625 73.617188 93.625 L 66.8125 93.625 L 66.8125 86.820313 C 66.8125 84.96875 65.304688 83.453125 63.4375 83.453125 Z M 59.53125 85.445313 L 63.4375 85.445313 C 64.195313 85.445313 64.8125 86.0625 64.8125 86.820313 L 64.8125 94.625 C 64.8125 95.171875 65.257813 95.625 65.8125 95.625 L 73.617188 95.625 C 74.367188 95.625 74.984375 96.234375 74.984375 96.992188 L 74.984375 100.90625 C 74.984375 101.664063 74.367188 102.28125 73.617188 102.28125 L 65.8125 102.28125 C 65.257813 102.28125 64.8125 102.726563 64.8125 103.28125 L 64.8125 111.078125 C 64.8125 111.835938 64.195313 112.453125 63.4375 112.453125 L 59.53125 112.453125 C 58.773438 112.453125 58.15625 111.835938 58.15625 111.078125 L 58.15625 103.28125 C 58.15625 102.726563 57.703125 102.28125 57.15625 102.28125 L 49.351563 102.28125 C 48.601563 102.28125 47.976563 101.664063 47.976563 100.90625 L 47.976563 96.992188 C 47.976563 96.234375 48.601563 95.625 49.351563 95.625 L 57.15625 95.625 C 57.703125 95.625 58.15625 95.171875 58.15625 94.625 L 58.15625 86.820313 C 58.15625 86.0625 58.773438 85.445313 59.53125 85.445313 Z M 128.984375 91.953125 C 125.125 91.953125 121.984375 95.09375 121.984375 98.953125 C 121.984375 102.8125 125.125 105.953125 128.984375 105.953125 C 132.84375 105.953125 135.984375 102.8125 135.984375 98.953125 C 135.984375 95.09375 132.84375 91.953125 128.984375 91.953125 Z M 152.984375 91.953125 C 149.125 91.953125 145.984375 95.09375 145.984375 98.953125 C 145.984375 102.8125 149.125 105.953125 152.984375 105.953125 C 156.84375 105.953125 159.984375 102.8125 159.984375 98.953125 C 159.984375 95.09375 156.84375 91.953125 152.984375 91.953125 Z M 128.984375 93.953125 C 131.742188 93.953125 133.984375 96.195313 133.984375 98.953125 C 133.984375 101.710938 131.742188 103.953125 128.984375 103.953125 C 126.226563 103.953125 123.984375 101.710938 123.984375 98.953125 C 123.984375 96.195313 126.226563 93.953125 128.984375 93.953125 Z M 152.984375 93.953125 C 155.742188 93.953125 157.984375 96.195313 157.984375 98.953125 C 157.984375 101.710938 155.742188 103.953125 152.984375 103.953125 C 150.226563 103.953125 147.984375 101.710938 147.984375 98.953125 C 147.984375 96.195313 150.226563 93.953125 152.984375 93.953125 Z M 140.984375 103.953125 C 137.125 103.953125 133.984375 107.09375 133.984375 110.953125 C 133.984375 114.8125 137.125 117.953125 140.984375 117.953125 C 144.84375 117.953125 147.984375 114.8125 147.984375 110.953125 C 147.984375 107.09375 144.84375 103.953125 140.984375 103.953125 Z M 140.984375 105.953125 C 143.742188 105.953125 145.984375 108.195313 145.984375 110.953125 C 145.984375 113.710938 143.742188 115.953125 140.984375 115.953125 C 138.226563 115.953125 135.984375 113.710938 135.984375 110.953125 C 135.984375 108.195313 138.226563 105.953125 140.984375 105.953125 Z M 169.523438 113.695313 C 170.242188 119.320313 170.804688 124.734375 170.898438 128.398438 C 170.929688 129.796875 171.0625 131.492188 171.203125 133.367188 C 171.789063 141.070313 172.671875 152.710938 167.1875 157.828125 C 164.515625 160.3125 160.367188 161.164063 154.859375 160.34375 C 151.570313 159.859375 148.664063 157.773438 147.09375 154.765625 C 144.507813 149.835938 142.179688 145.617188 140.0625 141.9375 C 142.648438 138.84375 144.367188 135 144.78125 130.78125 C 155.609375 129.53125 164.726563 122.898438 169.523438 113.695313 Z M 34.242188 113.8125 C 39.054688 122.953125 48.140625 129.546875 58.929688 130.78125 C 59.34375 135.023438 61.070313 138.890625 63.6875 141.992188 C 61.304688 146.125 58.765625 150.765625 56.0625 155.96875 C 54.960938 158.101563 52.992188 159.585938 50.65625 160.046875 C 44.390625 161.289063 39.71875 160.601563 36.773438 157.984375 C 31.085938 152.945313 31.984375 141.164063 32.578125 133.367188 C 32.71875 131.492188 32.851563 129.804688 32.882813 128.40625 C 32.96875 124.765625 33.53125 119.390625 34.242188 113.8125 Z M 80.984375 121.953125 C 76.023438 121.953125 71.984375 125.992188 71.984375 130.953125 C 71.984375 135.914063 76.023438 139.953125 80.984375 139.953125 C 85.945313 139.953125 89.984375 135.914063 89.984375 130.953125 C 89.984375 125.992188 85.945313 121.953125 80.984375 121.953125 Z M 124.984375 121.953125 C 120.023438 121.953125 115.984375 125.992188 115.984375 130.953125 C 115.984375 135.914063 120.023438 139.953125 124.984375 139.953125 C 129.945313 139.953125 133.984375 135.914063 133.984375 130.953125 C 133.984375 125.992188 129.945313 121.953125 124.984375 121.953125 Z M 80.984375 123.953125 C 84.84375 123.953125 87.984375 127.09375 87.984375 130.953125 C 87.984375 134.8125 84.84375 137.953125 80.984375 137.953125 C 77.125 137.953125 73.984375 134.8125 73.984375 130.953125 C 73.984375 127.09375 77.125 123.953125 80.984375 123.953125 Z M 124.984375 123.953125 C 128.84375 123.953125 131.984375 127.09375 131.984375 130.953125 C 131.984375 134.8125 128.84375 137.953125 124.984375 137.953125 C 121.125 137.953125 117.984375 134.8125 117.984375 130.953125 C 117.984375 127.09375 121.125 123.953125 124.984375 123.953125 Z "/>
  </g>
</svg>
