<?xml version="1.0" encoding="UTF-8"?>
<svg xmlns="http://www.w3.org/2000/svg" xmlns:xlink="http://www.w3.org/1999/xlink" width="100pt" height="100pt" viewBox="0 0 100 100" version="1.1">
  <g id="surface1">
    <path style=" stroke:none;fill-rule:nonzero;fill:#FFFFFF;fill-opacity:1;" d="M 82.960938 13.828125 C 82.8125 13.84375 82.675781 13.859375 82.527344 13.890625 C 81.0625 14.089844 79.832031 15.097656 79.335938 16.492188 C 78.839844 17.886719 79.164063 19.4375 80.171875 20.523438 C 87.0625 28.234375 91.269531 38.386719 91.269531 49.601563 C 91.269531 60.800781 87.09375 71.019531 80.171875 78.746094 C 79.070313 79.769531 78.644531 81.332031 79.070313 82.773438 C 79.496094 84.21875 80.699219 85.292969 82.179688 85.558594 C 83.660156 85.820313 85.164063 85.222656 86.0625 84.015625 C 94.238281 74.886719 99.207031 62.792969 99.207031 49.601563 C 99.207031 36.410156 94.261719 24.367188 86.125 15.253906 C 85.339844 14.316406 84.179688 13.796875 82.960938 13.828125 Z M 15.75 13.890625 C 14.71875 13.972656 13.757813 14.46875 13.082031 15.253906 C 4.945313 24.375 0 36.449219 0 49.601563 C 0 62.824219 4.96875 74.894531 13.144531 84.015625 C 14.042969 85.222656 15.546875 85.820313 17.027344 85.558594 C 18.507813 85.292969 19.710938 84.21875 20.136719 82.773438 C 20.5625 81.332031 20.136719 79.769531 19.035156 78.746094 C 12.113281 71.027344 7.9375 60.839844 7.9375 49.601563 C 7.9375 38.433594 12.144531 28.242188 19.035156 20.523438 C 20.144531 19.3125 20.390625 17.546875 19.664063 16.082031 C 18.941406 14.609375 17.382813 13.742188 15.75 13.890625 Z M 68.761719 28.460938 C 68.613281 28.476563 68.476563 28.492188 68.328125 28.523438 C 66.863281 28.722656 65.632813 29.730469 65.136719 31.125 C 64.640625 32.519531 64.964844 34.070313 65.972656 35.15625 C 69.375 39 71.429688 44.015625 71.429688 49.601563 C 71.429688 55.152344 69.367188 60.191406 65.972656 64.050781 C 64.894531 65.089844 64.492188 66.648438 64.941406 68.082031 C 65.382813 69.507813 66.59375 70.566406 68.066406 70.816406 C 69.546875 71.0625 71.035156 70.46875 71.925781 69.257813 C 76.542969 64.011719 79.363281 57.121094 79.363281 49.601563 C 79.363281 42.046875 76.566406 35.125 71.925781 29.886719 C 71.140625 28.949219 69.980469 28.429688 68.761719 28.460938 Z M 29.886719 28.582031 C 28.855469 28.667969 27.894531 29.164063 27.21875 29.949219 C 22.625 35.1875 19.839844 42.109375 19.839844 49.601563 C 19.839844 57.238281 22.730469 64.242188 27.46875 69.507813 C 28.941406 71.132813 31.453125 71.257813 33.078125 69.785156 C 34.707031 68.3125 34.832031 65.800781 33.359375 64.175781 C 29.886719 60.3125 27.777344 55.253906 27.777344 49.601563 C 27.777344 44.070313 29.792969 39.070313 33.171875 35.21875 C 34.28125 34.007813 34.527344 32.242188 33.800781 30.777344 C 33.078125 29.304688 31.519531 28.4375 29.886719 28.582031 Z M 49.601563 39.683594 C 44.132813 39.683594 39.683594 44.132813 39.683594 49.601563 C 39.683594 55.074219 44.132813 59.523438 49.601563 59.523438 C 55.074219 59.523438 59.523438 55.074219 59.523438 49.601563 C 59.523438 44.132813 55.074219 39.683594 49.601563 39.683594 Z "/>
  </g>
</svg>
