<?xml version="1.0" encoding="UTF-8"?>
<svg xmlns="http://www.w3.org/2000/svg" xmlns:xlink="http://www.w3.org/1999/xlink" width="100pt" height="100pt" viewBox="0 0 100 100" version="1.1">
  <g id="surface1">
    <path style=" stroke:none;fill-rule:nonzero;fill:#FFFFFF;fill-opacity:1;" d="M 15.6875 1.921875 C 15.601563 1.9375 15.515625 1.960938 15.4375 1.984375 C 14.515625 2.195313 13.867188 3.023438 13.890625 3.96875 L 13.890625 23.808594 L 33.730469 23.808594 C 34.441406 23.816406 35.109375 23.445313 35.472656 22.824219 C 35.832031 22.207031 35.832031 21.445313 35.472656 20.824219 C 35.109375 20.207031 34.441406 19.832031 33.730469 19.839844 L 20.523438 19.839844 C 27.988281 12.507813 38.234375 7.9375 49.601563 7.9375 C 72.746094 7.9375 91.269531 26.460938 91.269531 49.601563 C 91.269531 72.746094 72.746094 91.269531 49.601563 91.269531 C 26.460938 91.269531 7.9375 72.746094 7.9375 49.601563 C 7.9375 42.789063 9.617188 36.125 12.460938 30.445313 L 8.929688 28.644531 C 5.820313 34.871094 3.96875 42.132813 3.96875 49.601563 C 3.96875 74.871094 24.335938 95.238281 49.601563 95.238281 C 74.871094 95.238281 95.238281 74.871094 95.238281 49.601563 C 95.238281 24.335938 74.871094 3.96875 49.601563 3.96875 C 37.257813 3.96875 26.027344 8.921875 17.855469 16.863281 L 17.855469 3.96875 C 17.878906 3.394531 17.648438 2.84375 17.238281 2.457031 C 16.820313 2.0625 16.253906 1.867188 15.6875 1.921875 Z M 47.617188 17.855469 L 47.617188 46.191406 C 46.433594 46.882813 45.636719 48.136719 45.636719 49.601563 C 45.636719 49.945313 45.671875 50.277344 45.757813 50.59375 L 32.304688 64.050781 L 35.15625 66.902344 L 48.609375 53.449219 C 48.929688 53.53125 49.261719 53.570313 49.601563 53.570313 C 51.796875 53.570313 53.570313 51.796875 53.570313 49.601563 C 53.570313 48.136719 52.773438 46.882813 51.585938 46.191406 L 51.585938 17.855469 Z "/>
  </g>
</svg>
