<?xml version="1.0" encoding="UTF-8"?>
<svg xmlns="http://www.w3.org/2000/svg" xmlns:xlink="http://www.w3.org/1999/xlink" width="50pt" height="50pt" viewBox="0 0 50 50" version="1.1">
  <g id="surface1">
    <path style=" stroke:none;fill-rule:nonzero;fill:#FFFFFF;fill-opacity:1;" d="M 20.832031 2.976563 C 11.527344 2.976563 3.96875 10.535156 3.96875 19.839844 C 3.96875 29.144531 11.527344 36.707031 20.832031 36.707031 C 24.515625 36.707031 27.917969 35.519531 30.691406 33.511719 L 43.742188 46.535156 L 46.535156 43.742188 L 33.636719 30.816406 C 36.171875 27.863281 37.699219 24.03125 37.699219 19.839844 C 37.699219 10.535156 30.136719 2.976563 20.832031 2.976563 Z M 20.832031 4.960938 C 29.0625 4.960938 35.714844 11.609375 35.714844 19.839844 C 35.714844 28.074219 29.0625 34.722656 20.832031 34.722656 C 12.601563 34.722656 5.953125 28.074219 5.953125 19.839844 C 5.953125 11.609375 12.601563 4.960938 20.832031 4.960938 Z "/>
  </g>
</svg>
