<?xml version="1.0" encoding="UTF-8"?>
<svg xmlns="http://www.w3.org/2000/svg" xmlns:xlink="http://www.w3.org/1999/xlink" width="50pt" height="50pt" viewBox="0 0 50 50" version="1.1">
  <g id="surface1">
    <path style=" stroke:none;fill-rule:nonzero;fill:#FFFFFF;fill-opacity:1;" d="M 5.953125 3.96875 C 4.867188 3.96875 3.96875 4.867188 3.96875 5.953125 L 3.96875 13.890625 C 3.96875 14.972656 4.867188 15.871094 5.953125 15.871094 L 13.890625 15.871094 C 14.972656 15.871094 15.871094 14.972656 15.871094 13.890625 L 15.871094 5.953125 C 15.871094 4.867188 14.972656 3.96875 13.890625 3.96875 Z M 20.832031 3.96875 C 19.75 3.96875 18.847656 4.867188 18.847656 5.953125 L 18.847656 13.890625 C 18.847656 14.972656 19.75 15.871094 20.832031 15.871094 L 28.769531 15.871094 C 29.855469 15.871094 30.753906 14.972656 30.753906 13.890625 L 30.753906 5.953125 C 30.753906 4.867188 29.855469 3.96875 28.769531 3.96875 Z M 35.714844 3.96875 C 34.628906 3.96875 33.730469 4.867188 33.730469 5.953125 L 33.730469 13.890625 C 33.730469 14.972656 34.628906 15.871094 35.714844 15.871094 L 43.652344 15.871094 C 44.734375 15.871094 45.636719 14.972656 45.636719 13.890625 L 45.636719 5.953125 C 45.636719 4.867188 44.734375 3.96875 43.652344 3.96875 Z M 5.953125 5.953125 L 13.890625 5.953125 L 13.890625 13.890625 L 5.953125 13.890625 Z M 20.832031 5.953125 L 28.769531 5.953125 L 28.769531 13.890625 L 20.832031 13.890625 Z M 35.714844 5.953125 L 43.652344 5.953125 L 43.652344 13.890625 L 35.714844 13.890625 Z M 5.953125 18.847656 C 4.867188 18.847656 3.96875 19.75 3.96875 20.832031 L 3.96875 28.769531 C 3.96875 29.855469 4.867188 30.753906 5.953125 30.753906 L 13.890625 30.753906 C 14.972656 30.753906 15.871094 29.855469 15.871094 28.769531 L 15.871094 20.832031 C 15.871094 19.75 14.972656 18.847656 13.890625 18.847656 Z M 20.832031 18.847656 C 19.75 18.847656 18.847656 19.75 18.847656 20.832031 L 18.847656 28.769531 C 18.847656 29.855469 19.75 30.753906 20.832031 30.753906 L 28.769531 30.753906 C 29.855469 30.753906 30.753906 29.855469 30.753906 28.769531 L 30.753906 20.832031 C 30.753906 19.75 29.855469 18.847656 28.769531 18.847656 Z M 35.714844 18.847656 C 34.628906 18.847656 33.730469 19.75 33.730469 20.832031 L 33.730469 28.769531 C 33.730469 29.855469 34.628906 30.753906 35.714844 30.753906 L 43.652344 30.753906 C 44.734375 30.753906 45.636719 29.855469 45.636719 28.769531 L 45.636719 20.832031 C 45.636719 19.75 44.734375 18.847656 43.652344 18.847656 Z M 5.953125 20.832031 L 13.890625 20.832031 L 13.890625 28.769531 L 5.953125 28.769531 Z M 20.832031 20.832031 L 28.769531 20.832031 L 28.769531 28.769531 L 20.832031 28.769531 Z M 35.714844 20.832031 L 43.652344 20.832031 L 43.652344 28.769531 L 35.714844 28.769531 Z M 5.953125 33.730469 C 4.867188 33.730469 3.96875 34.628906 3.96875 35.714844 L 3.96875 43.652344 C 3.96875 44.734375 4.867188 45.636719 5.953125 45.636719 L 13.890625 45.636719 C 14.972656 45.636719 15.871094 44.734375 15.871094 43.652344 L 15.871094 35.714844 C 15.871094 34.628906 14.972656 33.730469 13.890625 33.730469 Z M 20.832031 33.730469 C 19.75 33.730469 18.847656 34.628906 18.847656 35.714844 L 18.847656 43.652344 C 18.847656 44.734375 19.75 45.636719 20.832031 45.636719 L 28.769531 45.636719 C 29.855469 45.636719 30.753906 44.734375 30.753906 43.652344 L 30.753906 35.714844 C 30.753906 34.628906 29.855469 33.730469 28.769531 33.730469 Z M 35.714844 33.730469 C 34.628906 33.730469 33.730469 34.628906 33.730469 35.714844 L 33.730469 43.652344 C 33.730469 44.734375 34.628906 45.636719 35.714844 45.636719 L 43.652344 45.636719 C 44.734375 45.636719 45.636719 44.734375 45.636719 43.652344 L 45.636719 35.714844 C 45.636719 34.628906 44.734375 33.730469 43.652344 33.730469 Z M 5.953125 35.714844 L 13.890625 35.714844 L 13.890625 43.652344 L 5.953125 43.652344 Z M 20.832031 35.714844 L 28.769531 35.714844 L 28.769531 43.652344 L 20.832031 43.652344 Z M 35.714844 35.714844 L 43.652344 35.714844 L 43.652344 43.652344 L 35.714844 43.652344 Z "/>
  </g>
</svg>
