<?xml version="1.0" encoding="UTF-8"?>
<svg xmlns="http://www.w3.org/2000/svg" xmlns:xlink="http://www.w3.org/1999/xlink" width="100pt" height="100pt" viewBox="0 0 100 100" version="1.1">
  <g id="surface1">
    <path style=" stroke:none;fill-rule:nonzero;fill:#FFFFFF;fill-opacity:1;" d="M 9.921875 5.953125 C 7.75 5.953125 5.953125 7.75 5.953125 9.921875 L 5.953125 89.285156 C 5.953125 91.457031 7.75 93.253906 9.921875 93.253906 L 89.285156 93.253906 C 91.457031 93.253906 93.253906 91.457031 93.253906 89.285156 L 93.253906 9.921875 C 93.253906 7.75 91.457031 5.953125 89.285156 5.953125 Z M 9.921875 9.921875 L 89.285156 9.921875 L 89.285156 89.285156 L 9.921875 89.285156 Z M 33.730469 26.289063 L 33.730469 72.917969 L 36.707031 71.179688 L 70.4375 51.339844 L 73.351563 49.601563 L 70.4375 47.867188 L 36.707031 28.027344 Z M 37.699219 33.234375 L 65.476563 49.601563 L 37.699219 65.972656 Z "/>
  </g>
</svg>
