<?xml version="1.0" encoding="UTF-8"?>
<svg xmlns="http://www.w3.org/2000/svg" xmlns:xlink="http://www.w3.org/1999/xlink" width="64pt" height="64pt" viewBox="0 0 64 64" version="1.1">
<g id="surface1">
<path style=" stroke:none;fill-rule:nonzero;fill:#FFFFFF;fill-opacity:1;" d="M 51.8125 34.953125 C 45.210938 34.226563 36.953125 25.046875 36.953125 25.046875 L 38.195313 25.046875 C 41.390625 26.945313 42.601563 28.765625 42.601563 28.765625 C 42.601563 28.765625 43.148438 27.320313 43.148438 26.289063 C 43.148438 26.289063 46.15625 26.4375 47.523438 30 C 48.25 28.453125 48.101563 27 48.101563 27 C 48.101563 27 50.8125 28.992188 51.242188 31.234375 C 52.039063 28.9375 51.8125 27.523438 51.8125 27.523438 C 54.164063 28.289063 54.953125 32.476563 54.953125 32.476563 C 54.953125 32.476563 55.53125 31.867188 55.53125 30 C 57.390625 31.601563 56.765625 33.710938 56.765625 33.710938 C 56.765625 33.710938 58.179688 32 58.007813 28.765625 C 57.828125 25.523438 53.054688 23.8125 53.054688 23.8125 L 48.570313 22.015625 C 47.773438 21.695313 47.453125 20.773438 47.820313 19.992188 C 47.984375 19.648438 48.101563 19.257813 48.101563 18.859375 C 48.101563 17.554688 40.53125 7.71875 28.289063 7.71875 C 28.289063 7.71875 36.953125 9.640625 36.953125 12.671875 C 36.953125 15.695313 34.476563 15.140625 34.476563 15.140625 C 34.476563 15.140625 19.75 14.492188 14.671875 4 C 14.671875 4 16.304688 12.976563 28.195313 16.890625 C 25.3125 17.390625 22.90625 18.21875 20.90625 19.265625 C 20.1875 19.039063 19.023438 18.859375 17.148438 18.859375 C 12.273438 18.859375 8.484375 22.570313 8.484375 22.570313 C 8.484375 22.570313 11.046875 21.335938 14.671875 21.335938 C 15.953125 21.335938 16.789063 21.492188 17.335938 21.6875 C 15.664063 23.125 14.429688 24.71875 13.523438 26.289063 C 13.492188 26.289063 13.46875 26.289063 13.4375 26.289063 C 7.429688 26.289063 6.007813 32.476563 6.007813 32.476563 C 7.59375 30.03125 10.859375 29.945313 11.875 29.984375 C 10.960938 32.8125 10.960938 34.953125 10.960938 34.953125 C 5.945313 36.851563 6.007813 43.617188 6.007813 43.617188 C 7.117188 39.59375 9.9375 38.796875 11.359375 38.664063 C 11.6875 40.210938 12.203125 41.609375 12.8125 42.898438 C 9.546875 45.890625 9.71875 51.046875 9.71875 51.046875 C 11.398438 46.546875 13.984375 46.132813 14.554688 46.101563 C 16.453125 49.28125 18 52.15625 18 56 L 46 56 C 46 40.640625 25.8125 44.671875 25.8125 33.710938 C 25.8125 33.710938 25.976563 28.53125 32.007813 26.289063 C 32.007813 26.289063 35.984375 38.664063 43.148438 38.664063 C 44.125 38.664063 45.054688 37.84375 45.625 37.429688 C 42.476563 37.429688 40.671875 36.1875 40.671875 36.1875 C 40.671875 36.1875 42.890625 35.570313 43.148438 34.953125 C 40.976563 35.054688 39.429688 33.710938 39.429688 33.710938 C 39.429688 33.710938 40.773438 33.609375 41.90625 32.476563 C 37.648438 32.328125 36.320313 28.578125 35.90625 26.46875 C 37.09375 27.59375 44.195313 34.210938 49.335938 36.1875 C 54.960938 38.359375 55.421875 38.820313 55.523438 39.90625 C 55.734375 37.84375 53.820313 36.804688 53.046875 36.1875 C 55.78125 36.1875 58 37.429688 58 37.429688 C 56.609375 35.828125 55.9375 35.40625 51.8125 34.953125 Z M 55.53125 27.523438 C 53.09375 27.523438 53.054688 25.046875 53.054688 25.046875 C 53.054688 25.046875 55.53125 25.304688 55.53125 27.523438 Z M 44.382813 20 L 42.664063 20 C 42.195313 20 41.546875 19.726563 41.210938 19.398438 L 39.4375 17.617188 C 39.4375 17.617188 43.867188 17.265625 44.382813 20 Z "/>
</g>
</svg>
