<?xml version="1.0" encoding="UTF-8"?>
<svg xmlns="http://www.w3.org/2000/svg" xmlns:xlink="http://www.w3.org/1999/xlink" width="48pt" height="48pt" viewBox="0 0 48 48" version="1.1">
  <g id="surface1">
    <path style=" stroke:none;fill-rule:nonzero;fill:#FFFFFF;fill-opacity:1;" d="M 2 4 L 2 28 L 14 28 C 14.007813 29.054688 14.421875 30.0625 15.171875 30.8125 L 28.335938 44 L 30.0625 42.296875 C 31.046875 41.335938 31.460938 39.9375 31.171875 38.59375 L 29.296875 30 L 42 30 C 44.210938 30 46 28.210938 46 26 L 46 22 C 46 21.460938 45.890625 20.921875 45.679688 20.429688 L 39.65625 6.421875 C 39.03125 4.953125 37.585938 4 35.984375 4 L 18 4 C 17.265625 4 16.59375 4.210938 16 4.554688 C 15.40625 4.210938 14.734375 4 14 4 Z M 6 8 L 14 8 L 14 24 L 6 24 Z M 18 8 L 35.984375 8 L 42 22 L 42 26 L 24.335938 26 L 25.382813 30.851563 L 26.65625 36.65625 L 18 27.984375 Z "/>
  </g>
</svg>
