<?xml version="1.0" encoding="UTF-8"?>
<svg xmlns="http://www.w3.org/2000/svg" xmlns:xlink="http://www.w3.org/1999/xlink" width="48pt" height="48pt" viewBox="0 0 48 48" version="1.1">
  <g id="surface1">
    <path style=" stroke:none;fill-rule:nonzero;fill:#FFFFFF;fill-opacity:1;" d="M 28.335938 2 L 15.171875 15.1875 C 14.421875 15.9375 14 16.953125 14 18.015625 L 14 38 C 14 40.210938 15.789063 42 18 42 L 35.984375 42 C 37.585938 42 39.03125 41.046875 39.65625 39.578125 L 45.679688 25.570313 C 45.890625 25.078125 46 24.539063 46 24 L 46 20 C 46 17.789063 44.210938 16 42 16 L 29.296875 16 L 31.171875 7.40625 C 31.460938 6.0625 31.046875 4.664063 30.0625 3.703125 Z M 2 18 L 2 42 L 10 42 L 10 18 Z "/>
  </g>
</svg>
