<?xml version="1.0" encoding="UTF-8"?>
<svg xmlns="http://www.w3.org/2000/svg" xmlns:xlink="http://www.w3.org/1999/xlink" width="64pt" height="64pt" viewBox="0 0 64 64" version="1.1">
  <g id="surface1">
    <path style=" stroke:none;fill-rule:nonzero;fill:#FFFFFF;fill-opacity:1;" d="M 33.375 6 L 32.75 6.5625 L 19.1875 20 L 10 20 L 10 52 L 43.6875 52 C 46.507813 52 48.96875 50.007813 49.5625 47.25 L 53.875 27.25 C 54.664063 23.554688 51.773438 20 48 20 L 36.5 20 L 36.875 18.5 C 37.28125 18.1875 37.539063 18.054688 38.125 17.25 C 39.0625 15.96875 40 13.984375 40 11.3125 C 40 8.460938 37.421875 6 34.1875 6 Z M 34.8125 10.1875 C 35.65625 10.351563 36 10.695313 36 11.3125 C 36 13.117188 35.453125 14.234375 34.9375 14.9375 C 34.421875 15.640625 34.0625 15.8125 34.0625 15.8125 L 33.375 16.1875 L 33.125 17 L 31.9375 21.5 L 31.3125 24 L 48 24 C 49.320313 24 50.210938 25.148438 49.9375 26.4375 L 45.6875 46.4375 C 45.484375 47.375 44.640625 48 43.6875 48 L 22 48 L 22 22.8125 Z M 14 24 L 18 24 L 18 48 L 14 48 Z "/>
  </g>
</svg>
