<?xml version="1.0" encoding="UTF-8"?>
<svg xmlns="http://www.w3.org/2000/svg" xmlns:xlink="http://www.w3.org/1999/xlink" width="100pt" height="100pt" viewBox="0 0 100 100" version="1.1">
  <g id="surface1">
    <path style=" stroke:none;fill-rule:nonzero;fill:#FFFFFF;fill-opacity:1;" d="M 25.421875 9.921875 C 24.328125 10.019531 23.523438 10.996094 23.625 12.089844 C 23.722656 13.183594 24.699219 13.988281 25.792969 13.890625 L 73.414063 13.890625 C 74.125 13.898438 74.792969 13.523438 75.15625 12.90625 C 75.511719 12.285156 75.511719 11.523438 75.15625 10.90625 C 74.792969 10.285156 74.125 9.914063 73.414063 9.921875 L 25.792969 9.921875 C 25.730469 9.921875 25.667969 9.921875 25.609375 9.921875 C 25.546875 9.921875 25.484375 9.921875 25.421875 9.921875 Z M 15.5 17.855469 C 14.40625 17.957031 13.601563 18.933594 13.703125 20.027344 C 13.804688 21.121094 14.78125 21.925781 15.871094 21.824219 L 83.332031 21.824219 C 84.046875 21.832031 84.714844 21.460938 85.078125 20.839844 C 85.433594 20.222656 85.433594 19.460938 85.078125 18.839844 C 84.714844 18.222656 84.046875 17.847656 83.332031 17.855469 L 15.871094 17.855469 C 15.8125 17.855469 15.75 17.855469 15.6875 17.855469 C 15.625 17.855469 15.5625 17.855469 15.5 17.855469 Z M 5.582031 25.792969 C 4.636719 25.972656 3.953125 26.808594 3.96875 27.777344 L 3.96875 87.300781 C 3.96875 88.394531 4.859375 89.285156 5.953125 89.285156 L 93.253906 89.285156 C 94.347656 89.285156 95.238281 88.394531 95.238281 87.300781 L 95.238281 27.777344 C 95.238281 26.683594 94.347656 25.792969 93.253906 25.792969 L 5.953125 25.792969 C 5.890625 25.792969 5.828125 25.792969 5.765625 25.792969 C 5.703125 25.792969 5.640625 25.792969 5.582031 25.792969 Z M 7.9375 29.761719 L 91.269531 29.761719 L 91.269531 85.316406 L 7.9375 85.316406 Z M 40.054688 45.636719 L 40.054688 69.445313 L 61.136719 57.539063 Z "/>
  </g>
</svg>
