<?xml version="1.0" encoding="UTF-8"?>
<svg xmlns="http://www.w3.org/2000/svg" xmlns:xlink="http://www.w3.org/1999/xlink" width="64pt" height="64pt" viewBox="0 0 64 64" version="1.1">
<g id="surface1">
<path style=" stroke:none;fill-rule:nonzero;fill:#FFFFFF;fill-opacity:1;" d="M 6 6 L 6 50 L 29.9375 50 L 25.9375 46 L 10 46 L 10 42 L 14 42 L 14 38 L 10 38 L 10 18 L 14 18 L 14 14 L 10 14 L 10 10 L 54 10 L 54 14 L 50 14 L 50 18 L 54 18 L 54 38 L 50 38 L 50 42 L 54 42 L 54 46 L 53.875 46 C 54.8125 47.21875 55.515625 48.578125 55.8125 50 L 58 50 L 58 6 Z M 18 14 L 18 18 L 22 18 L 22 14 Z M 26 14 L 26 18 L 30 18 L 30 14 Z M 34 14 L 34 18 L 38 18 L 38 14 Z M 42 14 L 42 18 L 46 18 L 46 14 Z M 19.4375 25.4375 L 20.0625 28.375 L 21.4375 35.375 L 21.5625 36 L 22 36.4375 L 41.8125 56.1875 C 44.117188 58.492188 47.882813 58.492188 50.1875 56.1875 C 52.492188 53.882813 52.492188 50.117188 50.1875 47.8125 L 30.4375 28 L 30 27.5625 L 29.375 27.4375 L 22.375 26.0625 Z M 24.5625 30.5625 L 28 31.25 L 47.375 50.625 C 48.265625 51.515625 48.265625 52.484375 47.375 53.375 C 46.484375 54.265625 45.515625 54.265625 44.625 53.375 L 25.25 34 Z M 18 38 L 18 42 L 22 42 L 22 38 Z "/>
</g>
</svg>
