<?xml version="1.0" encoding="UTF-8"?>
<svg xmlns="http://www.w3.org/2000/svg" xmlns:xlink="http://www.w3.org/1999/xlink" width="100pt" height="100pt" viewBox="0 0 100 100" version="1.1">
  <g id="surface1">
    <path style=" stroke:none;fill-rule:nonzero;fill:#FFFFFF;fill-opacity:1;" d="M 48.417969 17.855469 C 35.320313 17.855469 23.019531 18.847656 16.46875 20.238281 C 12.105469 21.230469 8.332031 24.203125 7.542969 28.769531 C 6.75 33.527344 5.953125 40.675781 5.953125 49.601563 C 5.953125 58.53125 6.742188 65.476563 7.734375 70.4375 C 8.535156 74.800781 12.300781 77.976563 16.664063 78.96875 C 23.617188 80.355469 35.511719 81.347656 48.609375 81.347656 C 61.710938 81.347656 73.605469 80.355469 80.550781 78.96875 C 84.921875 77.976563 88.6875 75 89.480469 70.4375 C 90.277344 65.476563 91.269531 58.339844 91.464844 49.410156 C 91.464844 40.480469 90.472656 33.335938 89.480469 28.375 C 88.6875 24.011719 84.921875 20.832031 80.550781 19.839844 C 73.605469 18.847656 61.507813 17.855469 48.417969 17.855469 Z M 48.417969 21.824219 C 62.703125 21.824219 74.203125 23.011719 79.761719 24.003906 C 82.738281 24.800781 85.117188 26.785156 85.511719 29.367188 C 86.703125 35.714844 87.496094 42.464844 87.496094 49.410156 C 87.300781 57.933594 86.308594 64.878906 85.511719 69.839844 C 84.921875 73.605469 80.953125 74.800781 79.761719 75.203125 C 72.613281 76.589844 60.710938 77.574219 48.804688 77.574219 C 36.898438 77.574219 24.800781 76.785156 17.855469 75.203125 C 14.882813 74.40625 12.5 72.421875 12.105469 69.839844 C 10.515625 64.28125 9.921875 56.941406 9.921875 49.601563 C 9.921875 40.472656 10.71875 33.730469 11.507813 29.566406 C 12.105469 25.792969 16.269531 24.601563 17.261719 24.203125 C 23.808594 22.816406 35.914063 21.824219 48.417969 21.824219 Z M 37.699219 33.730469 L 37.699219 65.476563 L 65.476563 49.601563 Z M 41.667969 40.480469 L 57.539063 49.601563 L 41.667969 58.726563 Z "/>
  </g>
</svg>
